<svg width="533" height="423" viewBox="0 0 533 423" fill="none" xmlns="http://www.w3.org/2000/svg">
<path d="M456.96 113.117C479.358 116.476 498.401 127.117 512.401 145.039C525.842 161.84 532.561 181.437 532.003 202.719C531.444 217.84 529.765 232.957 525.843 247.52C516.882 280 500.081 308.559 475.445 330.961C460.324 344.402 442.406 348.883 422.246 346.082C413.847 344.961 406.008 342.16 397.605 339.922C395.925 339.363 394.245 339.363 392.566 339.922C386.406 341.602 380.246 343.281 374.086 344.402C352.805 349.441 333.766 345.523 316.406 331.523C309.687 326.484 304.644 320.324 299.047 313.601C282.809 294.562 271.606 272.722 264.328 248.64C260.406 235.761 258.167 222.32 257.609 208.878C257.05 200.48 257.05 192.64 258.167 184.237C261.527 163.518 271.047 146.159 286.727 132.717C306.329 115.358 329.847 109.197 355.605 110.877C365.125 111.436 374.644 113.116 384.164 115.358C385.844 115.916 386.403 115.358 386.403 113.678C386.403 110.319 385.844 106.397 385.282 103.037C381.922 89.0371 374.083 77.8381 361.204 70.5571C358.403 68.8774 358.403 68.8774 360.083 66.0766L365.122 55.9986C365.68 54.3189 366.801 54.3189 367.922 54.8775C370.161 56.5572 372.403 57.6783 374.641 59.358C383.602 65.5182 390.321 73.358 395.36 82.878C396.481 84.5577 396.481 84.5577 397.599 82.878C399.278 80.0772 401.52 77.8389 403.759 75.5968C417.759 61.0378 435.118 53.7568 455.279 53.1988C467.041 52.6402 477.677 56.5582 488.881 60.48C490.002 61.0386 490.002 61.6011 489.439 62.7183C483.838 71.1167 478.24 78.9563 470.4 85.6793C457.521 96.3203 442.4 102.48 425.041 103.038C417.202 103.038 409.92 101.917 402.643 99.6789C401.522 99.1203 400.964 99.1203 400.964 100.8C402.085 105.28 402.643 109.761 402.085 113.679C402.085 114.8 402.643 114.8 403.764 114.8C416.084 111.441 428.963 109.761 444.084 109.761C447.444 111.995 451.924 112.558 456.964 113.116L456.96 113.117ZM337.68 145.039C324.801 146.719 314.16 152.32 305.2 161.84C295.681 171.918 290.641 183.68 290.079 197.68C290.079 201.039 290.638 204.399 293.438 206.641C296.239 208.879 299.04 208.879 302.399 207.199C305.2 205.52 306.88 203.278 306.88 199.918C306.88 195.438 307.438 191.52 309.118 187.598C314.72 171.918 328.72 161.836 346.079 161.278C350.56 161.278 353.36 158.477 353.919 154.559C354.478 150.079 352.239 146.161 348.317 145.04C346.638 144.481 345.516 145.04 343.837 144.481C341.602 144.477 339.923 145.04 337.681 145.04L337.68 145.039ZM193.2 335.439V333.201C193.2 319.201 182.001 308.002 168.001 308.002L25.201 307.998C11.201 307.998 0.0019989 319.197 0.0019989 333.197V335.435C0.0019989 349.435 11.201 360.634 25.201 360.634H168.561C182.002 360.079 193.202 349.439 193.202 335.439L193.2 335.439ZM160.72 397.041V394.803C160.72 380.803 149.521 369.604 135.521 369.604H57.123C43.123 369.604 31.924 380.803 31.924 394.803V397.041C31.924 411.041 43.123 422.24 57.123 422.24H135.521C149.521 422.24 160.72 411.041 160.72 397.041ZM0 86.801V89.0393C0 103.039 11.199 114.238 25.199 114.238H168.559C182.559 114.238 193.758 103.039 193.758 89.0393V86.801C193.758 72.801 182.559 61.602 168.559 61.602H25.199C11.199 62.1606 0 72.801 0 86.801V86.801ZM32.48 25.199V27.4373C32.48 41.4373 43.679 52.6363 57.679 52.6363H136.077C150.077 52.6363 161.276 41.4373 161.276 27.4373V25.199C161.276 11.199 150.077 0 136.077 0H57.679C43.679 0 32.48 11.199 32.48 25.199V25.199ZM121.519 273.279V148.959C121.519 136.639 111.441 126.561 99.121 126.561H94.0819C81.7619 126.561 71.6839 136.639 71.6839 148.959V272.719C71.6839 285.039 81.7619 295.117 94.0819 295.117H99.121C111.441 295.676 121.519 285.598 121.519 273.277V273.279Z" fill="#E3E815"/>
</svg>
